<svg width="39" height="32" viewBox="0 0 39 32" fill="none" xmlns="http://www.w3.org/2000/svg">
    <path d="M19.5 12.0787V8.66673C19.4995 8.40324 19.4039 8.14576 19.2253 7.92676C19.0468 7.70775 18.7932 7.53701 18.4966 7.43606C18.1999 7.33511 17.8735 7.30847 17.5585 7.35948C17.2434 7.4105 16.9538 7.53689 16.7261 7.72273L6.5 16.0001L16.7261 24.2761C16.8767 24.4003 17.0557 24.4989 17.2529 24.5662C17.45 24.6335 17.6615 24.6681 17.875 24.6681C18.0885 24.6681 18.3 24.6335 18.4971 24.5662C18.6943 24.4989 18.8733 24.4003 19.0239 24.2761C19.1749 24.1523 19.2946 24.0054 19.3763 23.8436C19.458 23.6819 19.5 23.5085 19.5 23.3334V20.0147C23.9688 20.1054 28.8519 20.7694 32.5 25.3334V24.0001C32.5 17.8227 26.8125 12.7427 19.5 12.0787Z" fill="#3A3A3A"/>
</svg>
