<svg width="20" height="21" viewBox="0 0 20 21" fill="none" xmlns="http://www.w3.org/2000/svg">
    <path d="M3.29002 11.5983C3.21542 11.802 3.06433 11.9686 2.86887 12.0626C2.67341 12.1567 2.44897 12.1708 2.24326 12.102C2.03754 12.0332 1.86675 11.887 1.76718 11.6942C1.66761 11.5015 1.6471 11.2776 1.71002 11.07C1.69335 11.12 1.71002 11.0683 1.71002 11.0683C1.73974 10.9766 1.77423 10.8865 1.81335 10.7983C1.88002 10.64 1.97835 10.4217 2.11335 10.1633C2.38669 9.64667 2.81669 8.95833 3.44669 8.27C4.72502 6.87833 6.81335 5.5 10 5.5C13.1884 5.5 15.2767 6.87833 16.5517 8.27C17.2324 9.01651 17.7843 9.87092 18.185 10.7983C18.2184 10.8767 18.2434 10.94 18.26 10.9867C18.2667 11 18.2834 11.0867 18.3 11.17C18.315 11.2467 18.3284 11.32 18.3334 11.3333C18.3334 11.3333 18.4734 11.8883 17.7634 12.1233C17.5543 12.1932 17.326 12.1773 17.1286 12.0792C16.9312 11.9811 16.7807 11.8088 16.71 11.6V11.595L16.6984 11.5683C16.6146 11.3542 16.5189 11.145 16.4117 10.9417C16.1159 10.3826 15.7501 9.86346 15.3234 9.39667C14.3067 8.28833 12.645 7.16667 10 7.16667C7.35502 7.16667 5.69335 8.28833 4.67669 9.39667C4.12625 10.0001 3.67863 10.6898 3.35169 11.4383C3.33419 11.4813 3.31752 11.5247 3.30169 11.5683L3.29002 11.5983V11.5983Z" fill="#434343"/>
    <path d="M6.66669 12.1666C6.66669 11.2826 7.01788 10.4347 7.643 9.80962C8.26812 9.1845 9.11597 8.83331 10 8.83331C10.8841 8.83331 11.7319 9.1845 12.357 9.80962C12.9822 10.4347 13.3334 11.2826 13.3334 12.1666C13.3334 13.0507 12.9822 13.8985 12.357 14.5237C11.7319 15.1488 10.8841 15.5 10 15.5C9.11597 15.5 8.26812 15.1488 7.643 14.5237C7.01788 13.8985 6.66669 13.0507 6.66669 12.1666Z" fill="#434343"/>
</svg>
