<svg width="23" height="23" viewBox="0 0 23 23" fill="none" xmlns="http://www.w3.org/2000/svg">
    <path d="M20.9201 11.2059L2.13155 1.78574C2.05518 1.74756 1.96759 1.73857 1.88448 1.75879C1.69356 1.80596 1.57452 1.99912 1.62169 2.19228L3.55782 10.103C3.58702 10.2221 3.67462 10.3187 3.79141 10.3568L7.10889 11.4956L3.79366 12.6344C3.67686 12.6748 3.58927 12.7691 3.56231 12.8882L1.62169 20.8102C1.60147 20.8933 1.61046 20.9809 1.64864 21.055C1.73624 21.2324 1.95186 21.3043 2.13155 21.2167L20.9201 11.8505C20.9898 11.8168 21.0459 11.7584 21.0818 11.691C21.1694 11.5113 21.0976 11.2957 20.9201 11.2059ZM3.83634 18.5596L4.96612 13.9416L11.5966 11.6663C11.6482 11.6483 11.6909 11.6079 11.7089 11.554C11.7403 11.4597 11.6909 11.3586 11.5966 11.3249L4.96612 9.05185L3.84083 4.45185L17.9463 11.5248L3.83634 18.5596V18.5596Z" fill="#FFD1D1"/>
</svg>
